<svg xmlns="http://www.w3.org/2000/svg" width="80" height="412" viewBox="0 0 80 412"><path fill="#fff" fill-opacity=".5" d="M38.37 365.69L2.18 340.07v24.65l36.71 23.74H2.18V411h75.8v-22.54H39.56l38.42-24.65v-25.38zm38.49-61.99a26.92 26.92 0 0 0-6.84-10.87c-3.13-3.03-8.01-6.12-14.65-9.26L2.18 258.36v24.19l21.1 8.46a153.64 153.64 0 0 0 16.49 5.73v.8a87.07 87.07 0 0 0-7.39 2.56c-1.33.53-2.62 1.07-3.86 1.61-1.25.55-2.32 1.02-3.22 1.4L2.18 313.32v24.19l54.23-27.09c2.49 1.02 4.22 2.34 5.21 3.95.98 1.6 1.48 3.59 1.48 5.93 0 5.45-.64 9.96-1.92 13.52h16.28a63.7 63.7 0 0 0 1.55-14.54c0-6.17-.71-11.37-2.15-15.59zM2.18 182.71v68.04h75.8V228.2H18.93v-22.89h59.05v-22.6zm8.71-85.35c-6.6 6.81-9.9 16.83-9.9 30.04 0 13.17 3.32 23.22 9.98 30.13 6.65 6.9 16.29 10.36 28.9 10.36 12.75 0 22.47-3.47 29.14-10.42 6.67-6.95 10-16.93 10-29.96 0-13.2-3.32-23.24-9.95-30.1-6.64-6.85-16.33-10.27-29.09-10.27-12.78 0-22.48 3.4-29.08 10.22zm12.31 17.58c3.62-2.79 9.21-4.18 16.77-4.18 7.54 0 13.09 1.37 16.65 4.12 3.56 2.74 5.34 6.96 5.34 12.63 0 11.17-7.33 16.76-21.99 16.76-14.79 0-22.18-5.63-22.18-16.87 0-5.53 1.8-9.68 5.41-12.47zM2.18.98v22.54h28.1V49.6H2.18v22.54h75.8V49.6h-30.9V23.53h30.9V1z"/></svg>